<svg id="Layer_1" data-name="Layer 1" xmlns="http://www.w3.org/2000/svg" viewBox="0 0 11.21 11.21"><defs><style>.cls-1{fill:#071d2b;}</style></defs><title>complex</title><path class="cls-1" d="M9.73,11.22A1.81,1.81,0,0,1,9.12,11a1.31,1.31,0,0,1-.44-1.52.13.13,0,0,0,0-.17l-2.4-2.4a.12.12,0,0,0-.16,0,1.32,1.32,0,0,1-1.68-.7.12.12,0,0,0-.13-.09H2.66a.12.12,0,0,0-.13.08A1.31,1.31,0,0,1,0,5.55,1.26,1.26,0,0,1,.8,4.42a.14.14,0,0,0,.09-.15V2.66A.12.12,0,0,0,.8,2.53,1.3,1.3,0,0,1,.07.94,1.33,1.33,0,0,1,1.57,0,1.32,1.32,0,0,1,2.63,1.41a1.27,1.27,0,0,1-.78,1.11.14.14,0,0,0-.09.15V4.28a.12.12,0,0,0,.09.13,1.33,1.33,0,0,1,.68.68.11.11,0,0,0,.12.09H4.28a.12.12,0,0,0,.13-.08,1.31,1.31,0,0,1,2.51.59,2.1,2.1,0,0,1-.09.42c0,.06,0,.09,0,.13.81.81,1.62,1.62,2.44,2.42a.11.11,0,0,0,.11,0,1.32,1.32,0,0,1,1.8,1,.05.05,0,0,0,0,0v.35a.25.25,0,0,0,0,.07,1.32,1.32,0,0,1-.87,1l-.25.07Zm-8-9.9a.44.44,0,0,0-.87,0,.43.43,0,0,0,.44.43A.44.44,0,0,0,1.76,1.32Zm0,4.29a.44.44,0,1,0-.87,0,.43.43,0,0,0,.43.43A.44.44,0,0,0,1.76,5.61Zm3.85-.43a.44.44,0,1,0,.44.43A.44.44,0,0,0,5.61,5.18ZM9.9,10.34a.43.43,0,0,0,.44-.43.44.44,0,0,0-.87,0A.43.43,0,0,0,9.9,10.34Z" transform="translate(-0.01 -0.01)"/><path class="cls-1" d="M11.22,5.79A1.66,1.66,0,0,1,11,6.4a1.31,1.31,0,1,1-1.59-2,.13.13,0,0,0,.1-.14V2.66a.11.11,0,0,0-.09-.13,1.31,1.31,0,0,1-.68-.69.12.12,0,0,0-.12-.08H6.94c-.07,0-.1,0-.12.08a1.31,1.31,0,1,1,0-1A.14.14,0,0,0,7,.89c.54,0,1.07,0,1.61,0A.12.12,0,0,0,8.7.81a1.32,1.32,0,0,1,2.5.27.19.19,0,0,0,0,.07v.33a.24.24,0,0,0,0,.08,1.31,1.31,0,0,1-.78,1,.12.12,0,0,0-.08.13V4.29a.11.11,0,0,0,.08.12,1.3,1.3,0,0,1,.73.79c0,.09,0,.18.07.26ZM6.05,1.33a.44.44,0,1,0-.44.43A.44.44,0,0,0,6.05,1.33ZM9.91.89a.44.44,0,1,0,.43.44A.44.44,0,0,0,9.91.89Zm0,5.16a.44.44,0,1,0-.43-.44A.44.44,0,0,0,9.9,6.05Z" transform="translate(-0.01 -0.01)"/><path class="cls-1" d="M1.15,11.22A1.73,1.73,0,0,1,.54,11,1.31,1.31,0,0,1,.07,9.53,1.29,1.29,0,0,1,1.23,8.6a1.31,1.31,0,0,1,1.29.77.13.13,0,0,0,.15.1H4.28a.12.12,0,0,0,.13-.08,1.31,1.31,0,0,1,1.47-.77,1.31,1.31,0,0,1,0,2.58l-.07,0H5.42a1.33,1.33,0,0,1-1-.8c0-.07-.07-.07-.12-.07H2.66a.11.11,0,0,0-.13.09,1.21,1.21,0,0,1-.59.63,4.19,4.19,0,0,1-.46.16Zm.61-1.31a.44.44,0,1,0-.87,0,.44.44,0,0,0,.87,0Zm4.29,0a.44.44,0,1,0-.87,0,.44.44,0,0,0,.87,0Z" transform="translate(-0.01 -0.01)"/></svg>