<svg id="Layer_1" data-name="Layer 1" xmlns="http://www.w3.org/2000/svg" viewBox="0 0 11.01 11.01"><defs><style>.cls-1{fill:#071d2b;}</style></defs><title>fingerprint</title><path class="cls-1" d="M11.12,5.94c0,.2,0,.41-.08.61-.08.35-.18.69-.28,1a.28.28,0,1,1-.52-.19,4.86,4.86,0,0,0,.32-2A4.82,4.82,0,0,0,9.62,2.7l-.1-.14a.26.26,0,0,1,.07-.38.26.26,0,0,1,.38.07,8.18,8.18,0,0,1,.51.79A5.09,5.09,0,0,1,11.1,5.2a.29.29,0,0,1,0,.09Z" transform="translate(-0.11 -0.11)"/><path class="cls-1" d="M5.38,11.12l0,0a.27.27,0,0,1-.07-.48A4.85,4.85,0,0,0,7.05,7.68c.08-.37.12-.75.18-1.13,0-.2.14-.32.31-.3s.26.16.24.36a8.07,8.07,0,0,1-.53,2.27A5,5,0,0,1,5.66,11l-.15.1Z" transform="translate(-0.11 -0.11)"/><path class="cls-1" d="M8.9,5.8a8.87,8.87,0,0,1-.49,3,5.33,5.33,0,0,1-1.18,2,.27.27,0,0,1-.48-.09.25.25,0,0,1,.06-.26A5.85,5.85,0,0,0,8.26,7.08a11.09,11.09,0,0,0,.1-1.52A2.74,2.74,0,0,0,5.44,2.87,2.55,2.55,0,0,0,4.3,3.2l-.16.07A.28.28,0,0,1,4,2.76a3,3,0,0,1,1-.37A3.29,3.29,0,0,1,8.85,5a1.88,1.88,0,0,1,.05.33C8.91,5.45,8.9,5.63,8.9,5.8Z" transform="translate(-0.11 -0.11)"/><path class="cls-1" d="M5.61,3.41a2.21,2.21,0,0,1,2,1.23.27.27,0,0,1,0,.31.27.27,0,0,1-.28.1c-.12,0-.17-.1-.22-.2A1.65,1.65,0,0,0,4,5.6a8.11,8.11,0,0,1-.24,2A3.4,3.4,0,0,1,3,9.08a1.75,1.75,0,0,1-.93.55.44.44,0,0,1-.2,0,.27.27,0,0,1,0-.51,1.55,1.55,0,0,0,1.1-1,4.54,4.54,0,0,0,.34-1.35c0-.38.07-.77.08-1.16a2.2,2.2,0,0,1,2-2.15Z" transform="translate(-0.11 -0.11)"/><path class="cls-1" d="M.91,7.68a.28.28,0,0,1-.28-.17.23.23,0,0,1,.05-.29A1.56,1.56,0,0,0,1.2,5.94c0-.34,0-.69.07-1A4.39,4.39,0,0,1,4.81,1.29a6,6,0,0,1,.74-.08.29.29,0,0,1,.34.26c0,.17-.12.29-.33.29A3.85,3.85,0,0,0,2,4.43a3.61,3.61,0,0,0-.19,1.08,4.06,4.06,0,0,1-.15,1.3,1.42,1.42,0,0,1-.54.79A.79.79,0,0,1,.91,7.68Z" transform="translate(-0.11 -0.11)"/><path class="cls-1" d="M5.79.11A5.31,5.31,0,0,1,8.62,1a.3.3,0,0,1,.17.29.28.28,0,0,1-.44.19A7.36,7.36,0,0,0,7.47,1,4.91,4.91,0,0,0,3,1.43l-.09.05a.26.26,0,0,1-.37-.09A.26.26,0,0,1,2.58,1a6.89,6.89,0,0,1,.7-.39A5.63,5.63,0,0,1,5.79.11Z" transform="translate(-0.11 -0.11)"/><path class="cls-1" d="M10,5.74c0,.18,0,.35,0,.53a.27.27,0,0,1-.27.28.28.28,0,0,1-.28-.29c0-.23,0-.46,0-.69A3.81,3.81,0,0,0,7.31,2.15l-.09,0a.28.28,0,0,1-.13-.37.28.28,0,0,1,.37-.13,6.1,6.1,0,0,1,.7.41A4.35,4.35,0,0,1,10,5.74Z" transform="translate(-0.11 -0.11)"/><path class="cls-1" d="M6.72,5.69a7.2,7.2,0,0,1-.61,2.7.27.27,0,0,1-.36.16.27.27,0,0,1-.14-.38A6.43,6.43,0,0,0,6.1,6.46c0-.28.05-.55.06-.83a.55.55,0,0,0-.52-.57.56.56,0,0,0-.57.51h0c0,.21-.14.32-.3.31s-.26-.15-.25-.37a1.1,1.1,0,0,1,2.17-.13C6.71,5.5,6.71,5.62,6.72,5.69Z" transform="translate(-0.11 -0.11)"/><path class="cls-1" d="M.11,5.45A5.46,5.46,0,0,1,1.75,1.69a.29.29,0,0,1,.35-.07.25.25,0,0,1,.13.3.47.47,0,0,1-.12.19A5,5,0,0,0,.66,5.43a1.77,1.77,0,0,1,0,.23.26.26,0,0,1-.28.23.28.28,0,0,1-.26-.26Z" transform="translate(-0.11 -0.11)"/><path class="cls-1" d="M2.75,10.27A.3.3,0,0,1,2.46,10a.25.25,0,0,1,.23-.29,1.37,1.37,0,0,0,1.12-.77,4.59,4.59,0,0,0,.51-1.47c0-.13,0-.26.07-.38a.28.28,0,0,1,.32-.23.26.26,0,0,1,.22.3,5.46,5.46,0,0,1-.64,2,2,2,0,0,1-1,.94A4.94,4.94,0,0,1,2.75,10.27Z" transform="translate(-0.11 -0.11)"/><path class="cls-1" d="M2.79,6.6c-.08.28-.14.57-.23.85a2.59,2.59,0,0,1-.6,1,1.51,1.51,0,0,1-.58.35A.29.29,0,0,1,1,8.63a.28.28,0,0,1,.2-.36,1.15,1.15,0,0,0,.61-.54,3.49,3.49,0,0,0,.4-1.15.27.27,0,0,1,.28-.26A.31.31,0,0,1,2.79,6.6Z" transform="translate(-0.11 -0.11)"/><path class="cls-1" d="M9.85,7.71c-.08.29-.15.59-.24.87A4.29,4.29,0,0,1,8.87,10a.28.28,0,0,1-.28.11.24.24,0,0,1-.21-.2.4.4,0,0,1,0-.24,4.56,4.56,0,0,0,.84-2,.29.29,0,0,0,0-.09.29.29,0,0,1,.32-.2A.32.32,0,0,1,9.85,7.71Z" transform="translate(-0.11 -0.11)"/><path class="cls-1" d="M2.31,5.45a3.36,3.36,0,0,1,.74-1.92.26.26,0,0,1,.33-.09.25.25,0,0,1,.17.28.3.3,0,0,1-.08.16A2.84,2.84,0,0,0,2.86,5.6a.28.28,0,0,1-.28.29.28.28,0,0,1-.27-.3Z" transform="translate(-0.11 -0.11)"/><path class="cls-1" d="M5.71,9.24a.79.79,0,0,1,0,.13A3.26,3.26,0,0,1,4.1,10.81a.28.28,0,0,1-.4-.12.27.27,0,0,1,.17-.38,2.71,2.71,0,0,0,1.3-1.2A.28.28,0,0,1,5.51,9,.27.27,0,0,1,5.71,9.24Z" transform="translate(-0.11 -0.11)"/></svg>