<svg id="Layer_1" data-name="Layer 1" xmlns="http://www.w3.org/2000/svg" viewBox="0 0 64.47 21.2"><defs><style>.cls-1{fill:#007bff;}.cls-2{fill:#fff;}</style></defs><title>logo</title><path d="M16.87,31.23s2.55,4.78,6.45,3.1a2.52,2.52,0,0,0,2.65,3,6.25,6.25,0,0,0-1.33,7.17c1.8,3.93-6.4,6-7.77,7.93-1.37-2-9.58-4-7.78-7.93a6.24,6.24,0,0,0-1.32-7.17,2.52,2.52,0,0,0,2.65-3C14.31,36,16.87,31.23,16.87,31.23Z" transform="translate(-7.77 -31.23)"/><polygon class="cls-1" points="5.75 10.6 5.75 15.21 7.76 15.21 7.76 13.51 5.75 10.6"/><path class="cls-2" d="M19.27,43.48a3,3,0,0,0,1.89-2.91c0-2.07-1.54-3.34-4-3.34H12.4L15.31,41V39H17c1.31,0,2,.6,2,1.61s-.65,1.6-2,1.6h-.95L19,46.44h2.29Z" transform="translate(-7.77 -31.23)"/><path d="M27.44,45.11v-6h3a2,2,0,0,1,1.37.45,1.53,1.53,0,0,1,.52,1.2,1.42,1.42,0,0,1-.58,1.26,1.64,1.64,0,0,1-.35.18,1.21,1.21,0,0,1,.2.09,1.14,1.14,0,0,1,.53,1l0,1a1.22,1.22,0,0,0,.06.41.39.39,0,0,0,.2.2v.15H31.05a1.31,1.31,0,0,1-.08-.39,4.68,4.68,0,0,1,0-.66V43.5a.7.7,0,0,0-.24-.57,1.26,1.26,0,0,0-.76-.17H28.68v2.35Zm1.24-3.35h1.45a1.14,1.14,0,0,0,.72-.2.72.72,0,0,0,.24-.59.75.75,0,0,0-.23-.59,1.05,1.05,0,0,0-.69-.2H28.68Z" transform="translate(-7.77 -31.23)"/><path d="M34.39,45.22a1.37,1.37,0,0,1-1-.35A1.2,1.2,0,0,1,33,44a1.37,1.37,0,0,1,.34-1,1.56,1.56,0,0,1,1-.46l.77-.11a1.66,1.66,0,0,0,.5-.13.39.39,0,0,0,.13-.15.39.39,0,0,0,0-.21.39.39,0,0,0-.19-.29,1,1,0,0,0-.57-.13.75.75,0,0,0-.52.16.6.6,0,0,0-.2.46H33.19A1.47,1.47,0,0,1,33.72,41a2.24,2.24,0,0,1,1.43-.38,2.18,2.18,0,0,1,1.3.34,1.13,1.13,0,0,1,.47,1v2.46a1.24,1.24,0,0,0,0,.41.34.34,0,0,0,.2.19v.16H35.91a3.18,3.18,0,0,1-.1-.52h0A1.79,1.79,0,0,1,34.39,45.22Zm1.4-1.74V43a2.43,2.43,0,0,1-.54.18l-.43.08a.85.85,0,0,0-.46.2.62.62,0,0,0,0,.8.5.5,0,0,0,.39.15,1.1,1.1,0,0,0,.89-.39.55.55,0,0,0,.11-.23A1,1,0,0,0,35.79,43.48Z" transform="translate(-7.77 -31.23)"/><path d="M38,45.11V40.7h1.1v.66l.15-.23a1.5,1.5,0,0,1,1.25-.54,1.43,1.43,0,0,1,1.09.41,1.61,1.61,0,0,1,.39,1.14v3H40.77V42.35a.86.86,0,0,0-.18-.6.67.67,0,0,0-.54-.2.88.88,0,0,0-.7.28,1.17,1.17,0,0,0-.25.79v2.49Z" transform="translate(-7.77 -31.23)"/><path d="M44.63,45.22a1.64,1.64,0,0,1-1.36-.66,2.65,2.65,0,0,1-.52-1.72,2.46,2.46,0,0,1,.52-1.64,1.66,1.66,0,0,1,1.35-.61,1.4,1.4,0,0,1,1.2.63l0,.06V39.16H47v6H45.91v-.56l0,0A1.5,1.5,0,0,1,44.63,45.22Zm.31-3.63a.86.86,0,0,0-.73.36,1.69,1.69,0,0,0-.26,1,1.65,1.65,0,0,0,.26,1,.85.85,0,0,0,.72.35.87.87,0,0,0,.74-.37,1.8,1.8,0,0,0,.26-1,1.54,1.54,0,0,0-.26-.94A.87.87,0,0,0,44.94,41.59Z" transform="translate(-7.77 -31.23)"/><path class="cls-1" d="M48.16,45.11v-6h2.49a2.3,2.3,0,0,1,1.55.47A1.79,1.79,0,0,1,52.73,41a1.92,1.92,0,0,1-.53,1.46,2.2,2.2,0,0,1-1.55.5H49.41v2.12ZM49.41,42h1a1.2,1.2,0,0,0,.79-.23.91.91,0,0,0,.26-.7.81.81,0,0,0-.26-.64,1.26,1.26,0,0,0-.79-.21h-1Z" transform="translate(-7.77 -31.23)"/><path class="cls-1" d="M54.65,45.22a1.38,1.38,0,0,1-1-.35A1.19,1.19,0,0,1,53.3,44a1.37,1.37,0,0,1,.33-1,1.56,1.56,0,0,1,1-.46l.77-.11a1.66,1.66,0,0,0,.5-.13.32.32,0,0,0,.13-.15.39.39,0,0,0,0-.21.37.37,0,0,0-.19-.29,1,1,0,0,0-.57-.13.77.77,0,0,0-.52.16.59.59,0,0,0-.19.46H53.45A1.47,1.47,0,0,1,54,41a2.24,2.24,0,0,1,1.43-.38,2.18,2.18,0,0,1,1.3.34,1.11,1.11,0,0,1,.48,1v2.46a1.31,1.31,0,0,0,0,.41.37.37,0,0,0,.2.19v.16H56.18a2.41,2.41,0,0,1-.11-.52h0A1.78,1.78,0,0,1,54.65,45.22Zm1.4-1.74V43a2.33,2.33,0,0,1-.53.18l-.43.08a.82.82,0,0,0-.46.2.51.51,0,0,0-.16.39.58.58,0,0,0,.14.41.51.51,0,0,0,.39.15,1.12,1.12,0,0,0,.9-.39.55.55,0,0,0,.1-.23A1,1,0,0,0,56.05,43.48Z" transform="translate(-7.77 -31.23)"/><path class="cls-1" d="M60.7,42a.49.49,0,0,0-.21-.41,1.15,1.15,0,0,0-1.08,0,.34.34,0,0,0-.19.32c0,.09.07.18.21.25a4,4,0,0,0,.75.22,3.94,3.94,0,0,1,1.43.52,1.08,1.08,0,0,1,.36.9,1.24,1.24,0,0,1-.52,1,2.26,2.26,0,0,1-1.38.39,2.7,2.7,0,0,1-1.57-.39,1.4,1.4,0,0,1-.58-1.13H59.1a.57.57,0,0,0,.27.47,1.19,1.19,0,0,0,.7.17,1,1,0,0,0,.54-.11.37.37,0,0,0,.19-.34c0-.1-.06-.18-.19-.25a2.54,2.54,0,0,0-.66-.21,4.09,4.09,0,0,1-1.49-.53,1,1,0,0,1-.38-.85A1.3,1.3,0,0,1,58.57,41a1.92,1.92,0,0,1,1.28-.4A2.46,2.46,0,0,1,61.3,41a1.21,1.21,0,0,1,.55,1Z" transform="translate(-7.77 -31.23)"/><path class="cls-1" d="M65.31,42a.49.49,0,0,0-.21-.41,1.15,1.15,0,0,0-1.08,0,.34.34,0,0,0-.19.32c0,.09.07.18.21.25a4.22,4.22,0,0,0,.75.22,3.86,3.86,0,0,1,1.43.52,1.08,1.08,0,0,1,.36.9,1.24,1.24,0,0,1-.52,1,2.26,2.26,0,0,1-1.38.39,2.7,2.7,0,0,1-1.57-.39,1.4,1.4,0,0,1-.58-1.13h1.18a.57.57,0,0,0,.27.47,1.19,1.19,0,0,0,.7.17,1,1,0,0,0,.54-.11.38.38,0,0,0,.2-.34c0-.1-.07-.18-.19-.25a2.79,2.79,0,0,0-.67-.21,4.17,4.17,0,0,1-1.49-.53,1,1,0,0,1-.38-.85A1.3,1.3,0,0,1,63.18,41a1.92,1.92,0,0,1,1.28-.4,2.46,2.46,0,0,1,1.45.39,1.21,1.21,0,0,1,.55,1Z" transform="translate(-7.77 -31.23)"/><path class="cls-1" d="M69.67,43.48H68.05v-.95h1.62V40.92h1v1.61h1.61v.95H70.62v1.61h-1Z" transform="translate(-7.77 -31.23)"/></svg>