<svg id="Layer_1" data-name="Layer 1" xmlns="http://www.w3.org/2000/svg" viewBox="0 0 10.92 10.82"><defs><style>.cls-1{fill:#071d2b;}</style></defs><title>long-pass</title><path class="cls-1" d="M11.08,11C11,11,11,11,10.9,11H9.17C9,11,9,11,9,10.86v-.19c0-.12,0-.16.15-.16h1.73a.46.46,0,0,1,.19.08Z" transform="translate(-0.15 -0.2)"/><path class="cls-1" d="M6.76,2.84A7.3,7.3,0,0,0,6.7,1.9a1,1,0,0,0-1-.82,1.08,1.08,0,0,0-1,.79,1.64,1.64,0,0,0,0,.32c0,.14-.07.19-.21.2H4a.17.17,0,0,1-.19-.17v0A1.9,1.9,0,0,1,5.64.2h.28A2,2,0,0,1,7.49,1.67a4.1,4.1,0,0,1,.08,1c0,.1,0,.14.12.16a.48.48,0,0,1,.39.4V6.05a.52.52,0,0,1-.37.54H3.8a.53.53,0,0,1-.58-.47V3.42a.52.52,0,0,1,.46-.58H6.76ZM5.44,5.29v.27c0,.17.09.27.23.27s.23-.09.24-.27V5A.22.22,0,0,1,6,4.83a.47.47,0,0,0,0-.67.48.48,0,0,0-.6,0,.48.48,0,0,0,0,.67.36.36,0,0,1,.13.34A.42.42,0,0,0,5.44,5.29Z" transform="translate(-0.15 -0.2)"/><path class="cls-1" d="M1,9.24l-.37.22a.16.16,0,0,1-.24-.08.16.16,0,0,1,.08-.19L.88,9,.5,8.75a.16.16,0,0,1,0-.24l0,0a.18.18,0,0,1,.2,0L1,8.69V8.23a.17.17,0,0,1,.16-.15.16.16,0,0,1,.15.16v.45l.35-.21a.2.2,0,0,1,.25,0c.05.05,0,.16-.09.23L1.5,9l.35.2c.11.07.15.15.1.24s-.14.1-.26,0l-.35-.18v.43c0,.11-.05.18-.14.19S1,9.8,1,9.67Z" transform="translate(-0.15 -0.2)"/><path class="cls-1" d="M9.89,8.68V8.24A.15.15,0,0,1,10,8.08a.12.12,0,0,1,.15.1.28.28,0,0,1,0,.13v.38l.37-.21a.31.31,0,0,1,.19,0c.11,0,.09.2,0,.27L10.35,9c.13.08.25.13.36.21a.21.21,0,0,1,.1.14.15.15,0,0,1,0,.13.19.19,0,0,1-.18,0c-.13-.06-.25-.14-.39-.22v.34a.29.29,0,0,1,0,.13.13.13,0,0,1-.15.14.14.14,0,0,1-.15-.13V9.24l-.29.17a.24.24,0,0,1-.11.06.15.15,0,0,1-.2-.1.16.16,0,0,1,0-.17L9.73,9l-.28-.17-.12-.07a.17.17,0,0,1,0-.21.15.15,0,0,1,.19-.07h0l.3.17Z" transform="translate(-0.15 -0.2)"/><path class="cls-1" d="M4,9.24c-.14.08-.26.16-.39.22a.16.16,0,0,1-.21,0v0a.16.16,0,0,1,0-.21l.08,0L3.83,9l-.39-.23a.17.17,0,0,1-.06-.22.15.15,0,0,1,.2-.06h.09L4,8.69V8.27a.28.28,0,0,1,0-.13.27.27,0,0,1,.15-.05.13.13,0,0,1,.12.14v.46l.25-.14.14-.08a.16.16,0,0,1,.22,0,.18.18,0,0,1-.07.23l-.29.18L4.45,9l.35.2c.11.07.15.15.1.24s-.14.1-.25,0l-.36-.21v.44a.16.16,0,0,1-.1.17c-.11,0-.19,0-.2-.16Z" transform="translate(-0.15 -0.2)"/><path class="cls-1" d="M7.24,8.69l.4-.23a.15.15,0,0,1,.2,0h0a.17.17,0,0,1,0,.21l-.09.06L7.4,9l.35.2c.11.07.15.16.1.24s-.14.1-.26,0l-.35-.2v.42c0,.13,0,.19-.15.2S7,9.79,7,9.65V9.24l-.29.17a.3.3,0,0,1-.11.06.15.15,0,0,1-.2-.1.16.16,0,0,1,0-.17L6.78,9,6.49,8.8l-.11-.07a.15.15,0,0,1,0-.21h0a.14.14,0,0,1,.18,0h0c.09,0,.18.1.27.15l.15,0V8.27c0-.12.06-.19.14-.19s.16.06.16.19Z" transform="translate(-0.15 -0.2)"/><path class="cls-1" d="M4.13,11H3.28c-.15,0-.18,0-.18-.18,0-.34,0-.34.33-.34H5c.17,0,.2,0,.2.21s0,.31-.3.31Z" transform="translate(-0.15 -0.2)"/><path class="cls-1" d="M7.09,11H6.23c-.15,0-.17,0-.17-.18,0-.34,0-.34.32-.34H8c.17,0,.2,0,.2.21s0,.31-.3.31Z" transform="translate(-0.15 -0.2)"/><path class="cls-1" d="M1.18,11H.32c-.14,0-.17,0-.17-.18,0-.34,0-.34.33-.34H2c.18,0,.2,0,.2.2s0,.32-.3.32Z" transform="translate(-0.15 -0.2)"/></svg>